<?xml version="1.0" encoding="UTF-8" standalone="no"?><!DOCTYPE svg PUBLIC "-//W3C//DTD SVG 1.1//EN" "http://www.w3.org/Graphics/SVG/1.1/DTD/svg11.dtd"><svg width="100%" height="100%" viewBox="0 0 1162 415" version="1.1" xmlns="http://www.w3.org/2000/svg" xmlns:xlink="http://www.w3.org/1999/xlink" xml:space="preserve" xmlns:serif="http://www.serif.com/" style="fill-rule:evenodd;clip-rule:evenodd;stroke-linejoin:round;stroke-miterlimit:2;"><path d="M65.817,349.909l-1.162,-346.175l-64.654,0.246l1.346,406.238l232.292,-0.796l-0.183,-60.063l-167.638,0.55Z" style="fill:#f0f9ff;"/><path d="M278.273,237.62c9,-52.654 48.921,-78.004 90.738,-78.125c42.371,-0.121 83.637,26.021 87.25,77.512l-177.925,0.613l-0.062,0Zm90.004,-131.883c-75.554,0.246 -149.15,54.863 -148.842,154.967c0.304,99.004 73.775,154.229 154.412,153.983c50.329,-0.183 93.188,-20.938 118.842,-53.021l-29.879,-30.796c-21.675,20.692 -50.267,31.042 -82.288,31.163c-50.942,0.183 -91.658,-26.021 -101.517,-77.45l233.458,-0.796c13.9,-124.783 -68.696,-178.292 -144.188,-178.05" style="fill:#f0f9ff;"/><path d="M680.898,356.399c-47.513,0.183 -93.921,-32.879 -94.167,-96.983c-0.183,-64.104 46.042,-97.413 93.492,-97.596c48.062,-0.183 94.533,32.879 94.721,96.925c0.242,64.104 -46.046,97.408 -94.108,97.592l0.062,0.062Zm91.9,-246.313l0.183,47.508l-1.712,0c-10.958,-23.388 -48.8,-53.021 -103.167,-52.838c-70.35,0.246 -144.004,52.533 -143.638,154.967c0.367,102.429 74.329,154.229 144.679,153.983c54.367,-0.183 92.021,-30.062 102.8,-53.575l1.712,0l0.183,47.512l62.942,-0.183l-0.979,-297.5l-62.942,0.183l-0.062,-0.058Z" style="fill:#f0f9ff;"/><path d="M1005.889,355.358c-47.513,0.183 -93.921,-32.879 -94.167,-96.983c-0.246,-64.104 46.042,-97.412 93.492,-97.596c48.062,-0.183 94.533,32.879 94.717,96.925c0.188,64.104 -46.042,97.408 -94.104,97.592l0.062,0.062Zm154.475,-355.296l-62.942,0.183l0.55,156.188l-1.712,0c-10.958,-23.387 -48.8,-53.021 -103.167,-52.838c-70.35,0.246 -144.004,52.533 -143.638,154.963c0.367,102.433 74.329,154.229 144.679,153.987c54.367,-0.188 92.021,-30.062 102.8,-53.575l1.712,0l0.183,47.512l62.942,-0.246l-1.346,-406.238l-0.062,0.062Z" style="fill:#f0f9ff;"/></svg>